<?xml version="1.0"?>
<svg version="1.1" xmlns="http://www.w3.org/2000/svg" width="400" height="200" style="border: dashed 2px #aaa"><path fill="#29a6ff" d="M22.56,97.172l-4.284,0l-1.064,0l-0.7,0l0,19.628l0.7,0l1.064,0l4.284,0q4.088,0,7-2.856q2.996-2.94,2.996-7.14q0-3.976-2.996-6.832q-2.94-2.8-7-2.8z M22.56,115.036l-4.284,0l0-16.044l4.284,0q3.5,0,5.88,2.296q2.352,2.296,2.352,5.516q0,3.5-2.352,5.852q-2.38,2.38-5.88,2.38z M49.54752,116.8l2.828,0l-12.516-9.996l12.516-9.632l-2.828,0l-10.752,8.568l0-8.568l-1.764,0l0,19.628l1.764,0l0-8.568z"/><path fill="#48b0fa" d=""/></svg>
